<svg width="13" height="13" viewBox="0 0 13 13" fill="none" xmlns="http://www.w3.org/2000/svg">
<g clip-path="url(#clip0_2_31)">
<path d="M12.8416 12.0756L9.60783 8.84187C10.4886 7.76464 10.9216 6.3901 10.8173 5.00256C10.7131 3.61502 10.0795 2.32063 9.04763 1.38713C8.01577 0.453635 6.66459 -0.0475544 5.27357 -0.0127685C3.88255 0.0220174 2.55811 0.590117 1.57421 1.57402C0.5903 2.55793 0.0222005 3.88237 -0.0125854 5.27339C-0.0473713 6.66441 0.453818 8.01559 1.38732 9.04744C2.32081 10.0793 3.6152 10.7129 5.00274 10.8172C6.39029 10.9214 7.76483 10.4884 8.84205 9.60765L12.0758 12.8414C12.1791 12.9337 12.3139 12.983 12.4524 12.9791C12.5909 12.9752 12.7227 12.9185 12.8207 12.8205C12.9187 12.7225 12.9754 12.5907 12.9793 12.4522C12.9832 12.3137 12.9339 12.1789 12.8416 12.0756ZM5.41737 9.74984C4.55987 9.75024 3.72153 9.49631 3.00838 9.02016C2.29523 8.54401 1.73933 7.86705 1.411 7.0749C1.08266 6.28276 0.996649 5.41103 1.16384 4.56999C1.33103 3.72896 1.74391 2.9564 2.35025 2.35007C2.95659 1.74373 3.72914 1.33085 4.57018 1.16366C5.41121 0.996465 6.28294 1.08248 7.07509 1.41081C7.86723 1.73915 8.5442 2.29505 9.02034 3.0082C9.49649 3.72134 9.75042 4.55969 9.75002 5.41718C9.74841 6.56578 9.29142 7.66687 8.47924 8.47905C7.66705 9.29123 6.56596 9.74823 5.41737 9.74984Z" fill="#9497A3"/>
</g>
<defs>
<clipPath id="clip0_2_31">
<rect width="13" height="13" fill="white"/>
</clipPath>
</defs>
</svg>
