<svg width="25" height="25" viewBox="0 0 25 25" fill="none" xmlns="http://www.w3.org/2000/svg">
<path d="M15.3645 23.4371H9.11454C3.45829 23.4371 1.04163 21.0204 1.04163 15.3642V9.11418C1.04163 3.45793 3.45829 1.04126 9.11454 1.04126H15.3645C21.0208 1.04126 23.4375 3.45793 23.4375 9.11418V15.3642C23.4375 21.0204 21.0208 23.4371 15.3645 23.4371ZM9.11454 2.60376C4.31246 2.60376 2.60413 4.31209 2.60413 9.11418V15.3642C2.60413 20.1663 4.31246 21.8746 9.11454 21.8746H15.3645C20.1666 21.8746 21.875 20.1663 21.875 15.3642V9.11418C21.875 4.31209 20.1666 2.60376 15.3645 2.60376H9.11454Z" fill="#9497A3"/>
<path d="M12.5 16.9266C11.3267 16.9238 10.2022 16.4565 9.37258 15.6269C8.54293 14.7973 8.07563 13.6728 8.07288 12.4995C8.07563 11.3262 8.54293 10.2018 9.37258 9.37213C10.2022 8.54249 11.3267 8.07518 12.5 8.07243C13.6732 8.07518 14.7977 8.54249 15.6273 9.37213C16.457 10.2018 16.9243 11.3262 16.927 12.4995C16.9243 13.6728 16.457 14.7973 15.6273 15.6269C14.7977 16.4565 13.6732 16.9238 12.5 16.9266ZM12.5 9.63493C10.9166 9.63493 9.63538 10.9162 9.63538 12.4995C9.63538 14.0828 10.9166 15.3641 12.5 15.3641C14.0833 15.3641 15.3645 14.0828 15.3645 12.4995C15.3645 10.9162 14.0833 9.63493 12.5 9.63493ZM17.7083 7.81202C17.5729 7.81202 17.4375 7.78077 17.3125 7.72868C17.1875 7.6766 17.0729 7.60368 16.9687 7.50993C16.875 7.40577 16.7916 7.29118 16.7395 7.16618C16.6894 7.04034 16.6646 6.90581 16.6666 6.77035C16.6666 6.63493 16.6875 6.49952 16.7395 6.37452C16.802 6.2391 16.875 6.13493 16.9687 6.03077C17.0208 5.9891 17.0729 5.93702 17.125 5.90577C17.1875 5.8641 17.25 5.83285 17.3125 5.81202C17.5023 5.73307 17.7112 5.71172 17.9131 5.75061C18.115 5.78951 18.3009 5.88694 18.4479 6.03077C18.5416 6.13493 18.6145 6.2391 18.6666 6.37452C18.7187 6.49952 18.75 6.63493 18.75 6.77035C18.75 6.90577 18.7187 7.04118 18.6666 7.16618C18.6145 7.29118 18.5416 7.40577 18.4479 7.50993C18.3437 7.60368 18.2291 7.6766 18.1041 7.72868C17.9791 7.78077 17.8437 7.81202 17.7083 7.81202Z" fill="#9497A3"/>
</svg>
