<svg width="96" height="20" viewBox="0 0 96 20" fill="none" xmlns="http://www.w3.org/2000/svg">
<path d="M0.68 19V2.2H5.432V19H0.68ZM8.09281 9.928L9.89281 3.688L10.5408 6.28C9.74081 6.28 9.08481 6.048 8.57281 5.584C8.06081 5.104 7.80481 4.464 7.80481 3.664C7.80481 2.848 8.06081 2.2 8.57281 1.72C9.10081 1.224 9.75681 0.975999 10.5408 0.975999C11.3248 0.975999 11.9728 1.224 12.4848 1.72C12.9968 2.2 13.2528 2.848 13.2528 3.664C13.2528 3.888 13.2368 4.12 13.2048 4.36C13.1728 4.584 13.1008 4.856 12.9888 5.176C12.8928 5.48 12.7248 5.896 12.4848 6.424L10.9488 9.928H8.09281ZM15.6097 19V2.2H19.5217L26.4817 13.624H24.4177L31.1857 2.2H35.0977L35.1457 19H30.7777L30.7297 8.848H31.4737L26.4097 17.344H24.2977L19.0897 8.848H20.0017V19H15.6097ZM42.0841 19V5.968H36.9241V2.2H51.9721V5.968H46.8361V19H42.0841ZM59.03 19.216C57.494 19.216 56.15 18.928 54.998 18.352C53.862 17.76 52.974 16.96 52.334 15.952C51.71 14.928 51.398 13.768 51.398 12.472C51.398 11.176 51.702 10.024 52.31 9.016C52.934 7.992 53.79 7.2 54.878 6.64C55.966 6.064 57.19 5.776 58.55 5.776C59.83 5.776 60.998 6.04 62.054 6.568C63.11 7.08 63.95 7.84 64.574 8.848C65.198 9.856 65.51 11.08 65.51 12.52C65.51 12.68 65.502 12.864 65.486 13.072C65.47 13.28 65.454 13.472 65.438 13.648H55.142V11.248H63.014L61.286 11.92C61.302 11.328 61.19 10.816 60.95 10.384C60.726 9.952 60.406 9.616 59.99 9.376C59.59 9.136 59.118 9.016 58.574 9.016C58.03 9.016 57.55 9.136 57.134 9.376C56.734 9.616 56.422 9.96 56.198 10.408C55.974 10.84 55.862 11.352 55.862 11.944V12.64C55.862 13.28 55.99 13.832 56.246 14.296C56.518 14.76 56.902 15.12 57.398 15.376C57.894 15.616 58.486 15.736 59.174 15.736C59.814 15.736 60.358 15.648 60.806 15.472C61.27 15.28 61.726 14.992 62.174 14.608L64.574 17.104C63.95 17.792 63.182 18.32 62.27 18.688C61.358 19.04 60.278 19.216 59.03 19.216ZM74.2604 19.216C72.8204 19.216 71.5324 18.928 70.3964 18.352C69.2764 17.776 68.3964 16.984 67.7564 15.976C67.1164 14.952 66.7964 13.784 66.7964 12.472C66.7964 11.16 67.1164 10 67.7564 8.992C68.3964 7.984 69.2764 7.2 70.3964 6.64C71.5324 6.064 72.8204 5.776 74.2604 5.776C75.7324 5.776 77.0044 6.088 78.0764 6.712C79.1484 7.336 79.9084 8.216 80.3564 9.352L76.8284 11.152C76.5244 10.544 76.1484 10.104 75.7004 9.832C75.2524 9.544 74.7644 9.4 74.2364 9.4C73.7084 9.4 73.2284 9.52 72.7964 9.76C72.3644 10 72.0204 10.352 71.7644 10.816C71.5244 11.264 71.4044 11.816 71.4044 12.472C71.4044 13.144 71.5244 13.712 71.7644 14.176C72.0204 14.64 72.3644 14.992 72.7964 15.232C73.2284 15.472 73.7084 15.592 74.2364 15.592C74.7644 15.592 75.2524 15.456 75.7004 15.184C76.1484 14.896 76.5244 14.448 76.8284 13.84L80.3564 15.64C79.9084 16.776 79.1484 17.656 78.0764 18.28C77.0044 18.904 75.7324 19.216 74.2604 19.216ZM90.4985 5.776C91.5065 5.776 92.4185 5.984 93.2345 6.4C94.0505 6.8 94.6905 7.424 95.1545 8.272C95.6345 9.12 95.8745 10.216 95.8745 11.56V19H91.3145V12.304C91.3145 11.376 91.1225 10.704 90.7385 10.288C90.3705 9.856 89.8505 9.64 89.1785 9.64C88.6985 9.64 88.2585 9.752 87.8585 9.976C87.4585 10.184 87.1465 10.512 86.9225 10.96C86.6985 11.408 86.5865 11.992 86.5865 12.712V19H82.0265V1.192H86.5865V9.688L85.5305 8.608C86.0265 7.664 86.7065 6.96 87.5705 6.496C88.4345 6.016 89.4105 5.776 90.4985 5.776Z" fill="#E43582"/>
</svg>
