<svg width="25" height="25" viewBox="0 0 25 25" fill="none" xmlns="http://www.w3.org/2000/svg">
<path d="M17.7084 21.6142H7.29171C3.70837 21.6142 1.30212 19.2079 1.30212 15.6246V9.37459C1.30212 5.79126 3.70837 3.38501 7.29171 3.38501H17.7084C21.2917 3.38501 23.698 5.79126 23.698 9.37459V15.6246C23.698 19.2079 21.2917 21.6142 17.7084 21.6142ZM7.29171 4.94751C4.60421 4.94751 2.86462 6.68709 2.86462 9.37459V15.6246C2.86462 18.3121 4.60421 20.0517 7.29171 20.0517H17.7084C20.3959 20.0517 22.1355 18.3121 22.1355 15.6246V9.37459C22.1355 6.68709 20.3959 4.94751 17.7084 4.94751H7.29171Z" fill="#9497A3"/>
<path d="M11.0312 16.1766C10.7292 16.1766 10.4375 16.1037 10.1771 15.9579C9.57292 15.6141 9.21875 14.9162 9.21875 14.0516V10.9683C9.21875 10.1037 9.5625 9.40579 10.1771 9.06204C10.7813 8.71829 11.5625 8.78079 12.3021 9.2287L14.875 10.7704C15.5833 11.1975 15.9896 11.8329 15.9896 12.51C15.9896 13.187 15.5833 13.8225 14.875 14.2495L12.3021 15.7912C11.875 16.0412 11.4375 16.1766 11.0312 16.1766ZM11.0312 10.385C10.9988 10.3845 10.9667 10.3916 10.9375 10.4058C10.8646 10.4475 10.7813 10.635 10.7813 10.9579V14.0412C10.7813 14.3537 10.8646 14.5412 10.9375 14.5933C11.0208 14.635 11.2187 14.6141 11.4896 14.4475L14.0625 12.9058C14.3229 12.7495 14.4167 12.5933 14.4167 12.4995C14.4167 12.4058 14.3229 12.26 14.0625 12.0933L11.4896 10.5516C11.3021 10.437 11.1354 10.385 11.0312 10.385Z" fill="#9497A3"/>
</svg>
